# Blender v3.1.2 OBJ File: 'Magic lamp PS1.blend'
# www.blender.org
mtllib Magic lamp PS1.mtl
o Sphere
v 0.214890 4.298773 -0.000000
v 0.347699 4.127285 -0.000000
v 0.347699 3.915315 -0.000000
v 0.214890 3.743826 -0.000000
v 0.000000 4.566686 -0.000000
v 0.000000 3.678324 -0.000000
v -0.214890 4.298773 -0.000000
v -0.347699 4.127285 -0.000000
v -0.347699 3.915314 -0.000000
v -0.214890 3.743826 -0.000000
v -1.149148 2.773663 -0.000000
v -0.896833 1.592154 -0.000000
v -0.906906 3.154135 -0.000000
v 1.058004 1.692886 -0.000000
v 0.967345 3.174282 -0.000000
v 0.000000 3.702321 -0.000000
v 0.060439 1.336091 -0.000000
v -1.606189 2.378181 -0.000000
v 1.890119 2.257424 -0.000000
v 1.603167 2.965359 -0.000000
v 2.862732 2.893986 -0.000000
v 2.399309 3.283772 -0.000000
v 4.046766 3.462680 -0.000000
v 3.583344 3.701038 -0.000000
v 4.101712 3.665894 -0.000000
v 4.579371 3.586387 -0.000000
v 4.634317 3.707856 -0.000000
v -1.544897 2.367183 -0.000000
v -1.747808 3.518689 -0.000000
v -2.135145 3.133638 -0.000000
v -2.718039 3.631446 -0.000000
v -2.581283 3.310273 -0.000000
v -3.295479 3.382232 -0.000000
v -2.809412 3.051997 -0.000000
v -2.955745 2.643631 -0.000000
v -2.590631 2.872319 -0.000000
v -1.746248 2.221685 -0.000000
v -1.501926 2.374716 -0.000000
v 1.294543 0.677773 -0.000000
v -1.062457 0.677773 -0.000000
v 0.116043 1.632676 -0.000000
v -1.581670 2.291114 -0.000000
v -1.448102 2.107274 -0.000000
v -1.448102 1.880035 -0.000000
v -1.581670 1.696195 -0.000000
v -1.797787 2.361334 -0.000000
v -1.797787 1.625974 -0.000000
v -2.013904 2.291114 -0.000000
v -2.147471 2.107274 -0.000000
v -2.147471 1.880035 -0.000000
v -2.013904 1.696195 -0.000000
v 0.000000 4.127285 0.333548
v 0.000000 3.915315 0.333548
v 0.000000 3.743826 0.206144
v 0.000000 4.298773 0.206144
v -0.880839 1.608147 0.556830
v 1.042011 1.708879 0.734701
v 0.951352 3.158289 0.897659
v 0.060439 1.559691 0.673898
v 0.000000 3.136233 1.098361
v -1.413200 2.344362 0.136876
v 1.483322 2.468840 1.015679
v 2.822097 3.185156 0.361971
v 0.000000 2.418474 1.427120
v 1.977522 2.736279 0.601067
v 1.868513 2.201263 0.602048
v 1.586802 2.893591 0.602048
v 4.006132 3.640733 0.241024
v 2.851310 2.895432 0.359385
v 2.397058 3.276441 0.359385
v 4.035345 3.463564 0.240184
v 3.581092 3.696555 0.240184
v 4.538737 3.692817 0.187390
v 4.567950 3.586915 0.186550
v -0.890913 3.138142 0.734701
v -1.382590 2.378181 0.851769
v -1.769745 3.534522 0.167230
v -2.008681 3.111724 0.225935
v -2.732636 3.622177 0.206889
v -2.538303 3.380145 0.244409
v -3.307708 3.355817 0.375749
v -2.812175 3.190064 0.438911
v -2.941630 2.627626 0.178585
v -2.684099 2.911227 0.224892
v -1.736803 2.210975 0.124656
v -1.564471 2.400752 0.155643
v 0.116043 0.677773 1.149298
v -1.797787 2.107274 0.349684
v -1.797787 1.880035 0.349684
v -1.797787 1.696195 0.216117
v -1.797787 2.291114 0.216117
v 0.000000 4.127285 -0.333548
v 0.000000 3.915315 -0.333548
v 0.000000 3.743826 -0.206144
v 0.000000 4.298773 -0.206144
v -0.880839 1.608147 -0.556830
v 1.042011 1.708879 -0.734701
v 0.951352 3.158289 -0.897659
v 0.060439 1.559691 -0.673898
v 0.000000 3.136233 -1.098361
v -1.413200 2.344362 -0.136876
v 1.483322 2.468840 -1.015679
v 2.822097 3.185156 -0.361971
v 0.000000 2.418474 -1.427120
v 1.977522 2.736279 -0.601067
v 1.868513 2.201263 -0.602048
v 1.586802 2.893591 -0.602048
v 4.006132 3.640733 -0.241024
v 2.851310 2.895432 -0.359385
v 2.397058 3.276441 -0.359385
v 4.035345 3.463564 -0.240184
v 3.581092 3.696555 -0.240184
v 4.538737 3.692817 -0.187390
v 4.567950 3.586915 -0.186550
v -0.890913 3.138142 -0.734701
v -1.382590 2.378181 -0.851769
v -1.769745 3.534522 -0.167230
v -2.008681 3.111724 -0.225935
v -2.732636 3.622177 -0.206889
v -2.538303 3.380145 -0.244409
v -3.307708 3.355817 -0.375749
v -2.812175 3.190064 -0.438911
v -2.941630 2.627626 -0.178585
v -2.684099 2.911227 -0.224892
v -1.736803 2.210975 -0.124656
v -1.564471 2.400752 -0.155643
v 0.116043 0.677773 -1.149298
v -1.797787 2.107274 -0.349684
v -1.797787 1.880035 -0.349684
v -1.797787 1.696195 -0.216117
v -1.797787 2.291114 -0.216117
vt 0.692045 0.491412
vt 0.711404 0.481058
vt 0.711404 0.534961
vt 0.700354 0.543258
vt 0.711811 0.459075
vt 0.658364 0.480680
vt 0.605737 0.398362
vt 0.656793 0.376750
vt 0.627892 0.304908
vt 0.654733 0.329223
vt 0.687894 0.317644
vt 0.672125 0.260833
vt 0.732987 0.319074
vt 0.698039 0.344347
vt 0.732987 0.445845
vt 0.709601 0.462757
vt 0.617757 0.668997
vt 0.641989 0.657633
vt 0.629704 0.681484
vt 0.640955 0.693418
vt 0.667505 0.661730
vt 0.685149 0.679616
vt 0.654196 0.705939
vt 0.666367 0.718817
vt 0.689862 0.704253
vt 0.689862 0.743285
vt 0.605737 0.692491
vt 0.608766 0.717447
vt 0.625366 0.736401
vt 0.650602 0.742086
vt 0.398724 0.340606
vt 0.347993 0.253155
vt 0.360126 0.246623
vt 0.461986 0.482046
vt 0.466539 0.607301
vt 0.398027 0.561060
vt 0.399334 0.481937
vt 0.302963 0.465584
vt 0.360321 0.372998
vt 0.397973 0.409268
vt 0.548507 0.476549
vt 0.605359 0.463820
vt 0.594795 0.577004
vt 0.537916 0.561772
vt 0.446110 0.675818
vt 0.411855 0.635463
vt 0.529187 0.403789
vt 0.558191 0.374301
vt 0.332135 0.579405
vt 0.461467 0.377645
vt 0.506556 0.649333
vt 0.468673 0.318042
vt 0.395139 0.747137
vt 0.360900 0.748828
vt 0.355561 0.648830
vt 0.421180 0.791648
vt 0.549668 0.677340
vt 0.383000 0.889515
vt 0.362091 0.893913
vt 0.398939 0.934857
vt 0.456546 0.785026
vt 0.486500 0.798434
vt 0.381409 0.951150
vt 0.419990 0.933779
vt 0.441346 0.941423
vt 0.415138 0.980217
vt 0.421836 0.995254
vt 0.402092 0.999811
vt 0.406422 0.981247
vt 0.452535 0.332793
vt 0.462634 0.319489
vt 0.406453 0.238097
vt 0.388078 0.163732
vt 0.416424 0.165930
vt 0.422334 0.221241
vt 0.352188 0.145344
vt 0.364634 0.090282
vt 0.401445 0.116912
vt 0.332889 0.148218
vt 0.442433 0.130183
vt 0.336651 0.076067
vt 0.442170 0.093551
vt 0.591569 0.036042
vt 0.605358 0.046650
vt 0.468400 0.106051
vt 0.420346 0.031441
vt 0.428947 0.047594
vt 0.657525 0.521386
vt 0.675440 0.560336
vt 0.649274 0.568967
vt 0.639879 0.528639
vt 0.571453 0.000189
vt 0.575643 0.012516
vt 0.693356 0.247559
vt 0.605737 0.130322
vt 0.758719 0.130322
vt 0.839148 0.260455
vt 0.691667 0.509567
vt 0.691667 0.537636
vt 0.674106 0.515713
vt 0.623298 0.534313
vt 0.623205 0.561843
vt 0.605737 0.540459
vt 0.674199 0.488183
vt 0.648130 0.481058
vt 0.621964 0.489689
vt 0.605737 0.512390
vt 0.629704 0.681484
vt 0.640955 0.693418
vt 0.654196 0.705939
vt 0.666367 0.718817
vt 0.360126 0.246623
vt 0.461986 0.482046
vt 0.399334 0.481937
vt 0.398027 0.561060
vt 0.466539 0.607301
vt 0.397973 0.409268
vt 0.548507 0.476549
vt 0.537916 0.561772
vt 0.411855 0.635463
vt 0.446110 0.675818
vt 0.529187 0.403789
vt 0.461467 0.377645
vt 0.506556 0.649333
vt 0.395139 0.747137
vt 0.421180 0.791648
vt 0.383000 0.889515
vt 0.398939 0.934857
vt 0.456546 0.785026
vt 0.419990 0.933779
vt 0.415138 0.980217
vt 0.406422 0.981247
vt 0.452535 0.332793
vt 0.406453 0.238097
vt 0.388078 0.163732
vt 0.352188 0.145344
vt 0.401445 0.116912
vt 0.364634 0.090282
vt 0.442170 0.093551
vt 0.591569 0.036042
vt 0.428947 0.047594
vt 0.657525 0.521386
vt 0.639879 0.528639
vt 0.575643 0.012516
vt 0.693356 0.247559
vt 0.674106 0.515713
vt 0.623298 0.534313
vn -0.0156 0.9564 0.2917
vn 0.3245 -0.9305 0.1700
vn 0.6848 -0.6039 0.4078
vn 0.7317 0.5937 0.3349
vn -0.6064 0.6653 0.4355
vn -0.6744 0.6655 0.3199
vn 0.4743 0.7961 0.3759
vn -0.4722 -0.7119 0.5198
vn -0.1313 0.9080 0.3979
vn 0.1998 -0.7582 0.6206
vn 0.6983 0.0442 0.7144
vn -0.8722 0.3587 0.3325
vn -0.6390 -0.6727 0.3730
vn 0.4963 0.7208 0.4838
vn -0.2731 -0.7831 0.5587
vn 0.3824 0.8368 0.3918
vn 0.0000 -1.0000 0.0000
vn 0.6526 -0.7577 0.0000
vn 0.0000 -0.7503 0.6611
vn -0.0000 -0.2791 0.9603
vn 0.9584 -0.2854 0.0000
vn 0.9584 0.2854 -0.0000
vn -0.0000 0.2791 0.9603
vn -0.0000 0.6013 0.7990
vn 0.7869 0.6171 -0.0000
vn 0.0000 1.0000 -0.0000
vn -0.6526 -0.7577 -0.0000
vn -0.9584 -0.2854 0.0000
vn -0.9584 0.2854 -0.0000
vn -0.7869 0.6171 -0.0000
vn 0.3983 0.6972 0.5960
vn -0.0638 -0.1013 0.9928
vn 0.4388 -0.0287 0.8981
vn 0.3225 0.7522 0.5747
vn -0.0558 0.6986 0.7134
vn -0.0304 0.9995 0.0000
vn -0.6333 0.7739 0.0000
vn -0.5593 0.6863 0.4651
vn 0.0049 -0.8481 0.5298
vn 0.0359 -0.9994 0.0000
vn 0.3968 -0.9179 0.0000
vn 0.3536 -0.7974 0.4890
vn 0.3010 0.1458 0.9424
vn 0.2588 0.8262 0.5005
vn -0.4333 -0.7902 0.4334
vn -0.5086 -0.8610 0.0000
vn 0.3234 0.9463 0.0000
vn -0.8180 -0.0431 0.5735
vn 0.5922 -0.6625 0.4586
vn -0.8888 0.4582 -0.0000
vn -0.1856 0.7887 0.5861
vn -0.3619 0.9322 -0.0000
vn -0.0232 0.9997 0.0000
vn 0.1048 0.1140 0.9879
vn 0.5492 -0.8357 -0.0000
vn -0.0724 0.7947 0.6026
vn -0.1200 0.9928 -0.0000
vn 0.0817 0.6556 0.7507
vn 0.4764 -0.5851 0.6563
vn 0.4972 -0.8676 -0.0000
vn 0.2977 -0.6187 0.7271
vn 0.6086 -0.5396 0.5818
vn 0.4297 0.5975 0.6770
vn -0.4100 0.7899 0.4560
vn -0.2210 -0.3430 0.9130
vn 0.2018 -0.3092 0.9293
vn -0.0670 0.8588 0.5079
vn -0.7202 0.2465 0.6485
vn 0.3651 -0.0866 0.9269
vn 0.5041 0.3216 0.8015
vn 0.3699 0.7339 0.5697
vn -0.5136 -0.6975 0.4997
vn 0.0000 -0.2744 0.9616
vn 0.9616 -0.2744 0.0000
vn 0.9616 0.2744 0.0000
vn 0.0000 0.2744 0.9616
vn -0.1990 -0.6680 0.7171
vn 0.0000 0.7692 0.6391
vn 0.6295 0.7770 0.0000
vn -0.6295 0.7770 0.0000
vn 0.6689 -0.7433 0.0000
vn 0.0000 -0.7433 0.6689
vn -0.0000 0.7433 0.6689
vn 0.6689 0.7433 0.0000
vn -0.6689 -0.7433 -0.0000
vn -0.9616 -0.2744 -0.0000
vn -0.9616 0.2744 -0.0000
vn -0.6689 0.7433 -0.0000
vn 0.0000 -0.7503 -0.6611
vn -0.0000 -0.2791 -0.9603
vn -0.0000 0.2791 -0.9603
vn 0.0000 0.6013 -0.7990
vn 0.3983 0.6972 -0.5960
vn -0.0638 -0.1013 -0.9928
vn -0.0558 0.6986 -0.7134
vn 0.3225 0.7522 -0.5747
vn 0.4388 -0.0287 -0.8981
vn -0.5593 0.6863 -0.4651
vn 0.0049 -0.8481 -0.5298
vn 0.3536 -0.7974 -0.4890
vn 0.2588 0.8262 -0.5005
vn 0.3010 0.1458 -0.9424
vn -0.4333 -0.7902 -0.4334
vn -0.8180 -0.0431 -0.5735
vn 0.5922 -0.6625 -0.4586
vn -0.1856 0.7887 -0.5861
vn 0.1048 0.1140 -0.9879
vn -0.0724 0.7947 -0.6026
vn 0.0817 0.6556 -0.7507
vn 0.4764 -0.5851 -0.6563
vn 0.2977 -0.6187 -0.7271
vn 0.6086 -0.5396 -0.5818
vn 0.4297 0.5975 -0.6770
vn -0.4100 0.7899 -0.4560
vn -0.2210 -0.3430 -0.9130
vn 0.2018 -0.3092 -0.9293
vn -0.0670 0.8588 -0.5079
vn 0.3651 -0.0866 -0.9269
vn -0.7202 0.2465 -0.6485
vn 0.5041 0.3216 -0.8015
vn 0.3699 0.7339 -0.5697
vn -0.5136 -0.6975 -0.4997
vn 0.0000 -0.2744 -0.9616
vn -0.0000 0.2744 -0.9616
vn -0.1990 -0.6680 -0.7171
vn 0.0000 0.7692 -0.6391
vn -0.0000 -0.7433 -0.6689
vn -0.0000 0.7433 -0.6689
g Sphere_Sphere_Material.002
usemtl Material.002
s 1
f 25/1/1 23/2/2 26/3/3 27/4/4
f 28/5/5 11/6/6 29/7/7 30/8/8
f 30/8/8 29/7/7 31/9/9 32/10/10
f 34/11/11 33/12/12 35/13/13 36/14/14
f 32/10/10 31/9/9 33/12/12 34/11/11
f 36/14/14 35/13/13 37/15/15 38/16/16
f 6/17/17 4/18/18 54/19/19
f 53/20/20 3/21/21 2/22/22 52/23/23
f 55/24/24 1/25/25 5/26/26
f 54/19/19 4/18/18 3/21/21 53/20/20
f 52/23/23 2/22/22 1/25/25 55/24/24
f 10/27/27 54/19/19 53/20/20 9/28/28
f 8/29/29 52/23/23 55/24/24 7/30/30
f 6/17/17 54/19/19 10/27/27
f 9/28/28 53/20/20 52/23/23 8/29/29
f 7/30/30 55/24/24 5/26/26
f 11/31/6 29/32/7 77/33/31
f 64/34/32 62/35/33 58/36/34 60/37/35
f 60/37/35 16/38/36 13/39/37 75/40/38
f 59/41/39 17/42/40 14/43/41 57/44/42
f 62/35/33 65/45/43 67/46/44 58/36/34
f 56/47/45 12/48/46 17/42/40 59/41/39
f 58/36/34 15/49/47 16/38/36 60/37/35
f 76/50/48 64/34/32 60/37/35 75/40/38
f 56/47/45 59/41/39 64/34/32 76/50/48
f 57/44/42 66/51/49 65/45/43 62/35/33
f 59/41/39 57/44/42 62/35/33 64/34/32
f 12/48/46 56/47/45 76/50/48 18/52/50
f 67/46/44 70/53/51 22/54/52 20/55/53
f 65/45/43 63/56/54 70/53/51 67/46/44
f 58/36/34 67/46/44 20/55/53 15/49/47
f 14/43/41 19/57/55 66/51/49 57/44/42
f 70/53/51 72/58/56 24/59/57 22/54/52
f 63/56/54 68/60/58 72/58/56 70/53/51
f 66/51/49 69/61/59 63/56/54 65/45/43
f 19/57/55 21/62/60 69/61/59 66/51/49
f 68/60/58 25/63/1 24/59/57 72/58/56
f 69/61/59 71/64/61 68/60/58 63/56/54
f 21/62/60 23/65/2 71/64/61 69/61/59
f 74/66/62 26/67/3 27/68/4 73/69/63
f 23/65/2 26/67/3 74/66/62 71/64/61
f 71/64/61 74/66/62 73/69/63 68/60/58
f 68/60/58 73/69/63 27/68/4 25/63/1
f 11/31/6 75/40/38 13/39/37
f 61/70/64 76/50/48 75/40/38 11/31/6
f 28/71/5 18/52/50 76/50/48 61/70/64
f 78/72/65 80/73/66 32/74/10 30/75/8
f 61/70/64 78/72/65 30/75/8 28/71/5
f 11/31/6 77/33/31 78/72/65 61/70/64
f 79/76/67 81/77/68 82/78/69 80/73/66
f 29/32/7 31/79/9 79/76/67 77/33/31
f 77/33/31 79/76/67 80/73/66 78/72/65
f 80/73/66 82/78/69 34/80/11 32/74/10
f 31/79/9 33/81/12 81/77/68 79/76/67
f 84/82/70 86/83/71 38/84/16 36/85/14
f 82/78/69 84/82/70 36/85/14 34/80/11
f 33/81/12 35/86/13 83/87/72 81/77/68
f 81/77/68 83/87/72 84/82/70 82/78/69
f 89/88/73 44/89/74 43/90/75 88/91/76
f 35/86/13 37/92/15 85/93/77 83/87/72
f 83/87/72 85/93/77 86/83/71 84/82/70
f 87/94/78 39/95/79 41/96/26
f 40/97/80 87/94/78 41/96/26
f 47/98/17 45/99/81 90/100/82
f 91/101/83 42/102/84 46/103/26
f 90/100/82 45/99/81 44/89/74 89/88/73
f 88/91/76 43/90/75 42/102/84 91/101/83
f 51/104/85 90/100/82 89/88/73 50/105/86
f 49/106/87 88/91/76 91/101/83 48/107/88
f 47/98/17 90/100/82 51/104/85
f 50/105/86 89/88/73 88/91/76 49/106/87
f 48/107/88 91/101/83 46/103/26
f 6/17/17 94/108/89 4/18/18
f 93/109/90 92/110/91 2/22/22 3/21/21
f 95/111/92 5/26/26 1/25/25
f 94/108/89 93/109/90 3/21/21 4/18/18
f 92/110/91 95/111/92 1/25/25 2/22/22
f 10/27/27 9/28/28 93/109/90 94/108/89
f 8/29/29 7/30/30 95/111/92 92/110/91
f 6/17/17 10/27/27 94/108/89
f 9/28/28 8/29/29 92/110/91 93/109/90
f 7/30/30 5/26/26 95/111/92
f 11/31/6 117/112/93 29/32/7
f 104/113/94 100/114/95 98/115/96 102/116/97
f 100/114/95 115/117/98 13/39/37 16/38/36
f 99/118/99 97/119/100 14/43/41 17/42/40
f 102/116/97 98/115/96 107/120/101 105/121/102
f 96/122/103 99/118/99 17/42/40 12/48/46
f 98/115/96 100/114/95 16/38/36 15/49/47
f 116/123/104 115/117/98 100/114/95 104/113/94
f 96/122/103 116/123/104 104/113/94 99/118/99
f 97/119/100 102/116/97 105/121/102 106/124/105
f 99/118/99 104/113/94 102/116/97 97/119/100
f 12/48/46 18/52/50 116/123/104 96/122/103
f 107/120/101 20/55/53 22/54/52 110/125/106
f 105/121/102 107/120/101 110/125/106 103/126/107
f 98/115/96 15/49/47 20/55/53 107/120/101
f 14/43/41 97/119/100 106/124/105 19/57/55
f 110/125/106 22/54/52 24/59/57 112/127/108
f 103/126/107 110/125/106 112/127/108 108/128/109
f 106/124/105 105/121/102 103/126/107 109/129/110
f 19/57/55 106/124/105 109/129/110 21/62/60
f 108/128/109 112/127/108 24/59/57 25/63/1
f 109/129/110 103/126/107 108/128/109 111/130/111
f 21/62/60 109/129/110 111/130/111 23/65/2
f 114/131/112 113/132/113 27/68/4 26/67/3
f 23/65/2 111/130/111 114/131/112 26/67/3
f 111/130/111 108/128/109 113/132/113 114/131/112
f 108/128/109 25/63/1 27/68/4 113/132/113
f 11/31/6 13/39/37 115/117/98
f 101/133/114 11/31/6 115/117/98 116/123/104
f 28/71/5 101/133/114 116/123/104 18/52/50
f 118/134/115 30/75/8 32/74/10 120/135/116
f 101/133/114 28/71/5 30/75/8 118/134/115
f 11/31/6 101/133/114 118/134/115 117/112/93
f 119/136/117 120/135/116 122/137/118 121/138/119
f 29/32/7 117/112/93 119/136/117 31/79/9
f 117/112/93 118/134/115 120/135/116 119/136/117
f 120/135/116 32/74/10 34/80/11 122/137/118
f 31/79/9 119/136/117 121/138/119 33/81/12
f 124/139/120 36/85/14 38/84/16 126/140/121
f 122/137/118 34/80/11 36/85/14 124/139/120
f 33/81/12 121/138/119 123/141/122 35/86/13
f 121/138/119 122/137/118 124/139/120 123/141/122
f 129/142/123 128/143/124 43/90/75 44/89/74
f 35/86/13 123/141/122 125/144/125 37/92/15
f 123/141/122 124/139/120 126/140/121 125/144/125
f 127/145/126 41/96/26 39/95/79
f 40/97/80 41/96/26 127/145/126
f 47/98/17 130/146/127 45/99/81
f 131/147/128 46/103/26 42/102/84
f 130/146/127 129/142/123 44/89/74 45/99/81
f 128/143/124 131/147/128 42/102/84 43/90/75
f 51/104/85 50/105/86 129/142/123 130/146/127
f 49/106/87 48/107/88 131/147/128 128/143/124
f 47/98/17 51/104/85 130/146/127
f 50/105/86 49/106/87 128/143/124 129/142/123
f 48/107/88 46/103/26 131/147/128
